<svg width="531" height="110" viewBox="0 0 531 110" fill="none" xmlns="http://www.w3.org/2000/svg">
<g opacity="0.5">
<path d="M217.75 58.5L202.52 78.39V58.5H186.52V11.5H250.52V58.5H217.75Z" fill="#CCEAFF"/>
<path d="M190.02 32.5V6H204.52M240.52 52H222.01L206.02 71.56V52H190.02V43.5M216.52 6H255.02V52H248.52" stroke="#1060E1" stroke-miterlimit="10"/>
<path d="M207.52 26.29V33.59L215.68 40.88L231.52 26.67V18.8L215.68 33.11L207.52 26.29Z" fill="#F8F9F9"/>
<path d="M359.38 61.5L350.09 72.92L349.83 61.5H344.52V34.5H389.52V61.5H359.38Z" fill="#FFB935"/>
<path d="M364.52 32H387.02V40.5M387.02 47.5V59H357.04L348.02 70.42V59H342.02V32H353.52" stroke="#F48024" stroke-miterlimit="10"/>
<path d="M362.52 44.5H367.52V49.5H362.52V44.5ZM352.52 44.5H357.52V49.5H352.52V44.5ZM372.52 44.5H377.52V49.5H372.52V44.5Z" fill="#F8F9F9"/>
<path d="M165.27 52.5L170.43 59.27L170.57 52.5H173.52V36.5H148.52V52.5H165.27Z" fill="#FFB935"/>
<path d="M155.52 51H166.25L172.02 57.72V51H176.02V44.5M155.52 35H150.02V50.5M176.02 38.5V35H160.52" stroke="#F48024" stroke-miterlimit="10"/>
<path d="M163.52 45.5H160.52V42.5H163.52V45.5Z" fill="#F8F9F9"/>
<path d="M169.52 45.5H166.52V42.5H169.52V45.5Z" fill="#F8F9F9"/>
<path d="M157.52 45.5H154.52V42.5H157.52V45.5Z" fill="#F8F9F9"/>
<path d="M471.97 62.5L487.52 82.39V62.5H503.52V15.5H438.52V62.5H471.97Z" fill="#FFB935"/>
<path d="M500.02 36.5V10H485.52M449.52 56H468.03L484.02 75.56V56H500.02V47.5M473.52 10H435.02V56H441.52" stroke="#F48024" stroke-miterlimit="10"/>
<path d="M455.52 30.21V37.5L463.68 44.8L479.52 30.59V22.72L463.68 37.02L455.52 30.21Z" fill="#F8F9F9"/>
<path d="M518.52 20H516.38L512.02 25.84V20H509.02V8H513.52M530.02 15.5V21H522.52M518.52 8H530.02V11.5M519.02 14H521.02V16H519.02V14Z" stroke="#1060E1" stroke-miterlimit="10"/>
<path d="M265.02 15.5V2H272.52M290.52 25H281.02L273.02 35V25H265.02V20.5M278.52 1H298.02V25H294.52M514.02 14H516.02V16H514.02V14ZM524.02 14H526.02V16H524.02V14Z" stroke="#1060E1" stroke-miterlimit="10"/>
<path d="M274.02 12.02V15.67L278.1 19.32L286.02 12.21V8.28L278.1 15.43L274.02 12.02Z" stroke="#1060E1" stroke-miterlimit="10"/>
<path d="M109.52 13H110.93L114.02 17.23V13H116.02V3H113.52M100.02 8.5V13H106.52M109.52 3H100.02V6.5" stroke="#F48024" stroke-miterlimit="10"/>
<path d="M109.02 9H107.02V7H109.02V9Z" stroke="#F48024" stroke-miterlimit="10"/>
<path d="M113.02 9H111.02V7H113.02V9Z" stroke="#F48024" stroke-miterlimit="10"/>
<path d="M105.02 9H103.02V7H105.02V9Z" stroke="#F48024" stroke-miterlimit="10"/>
<path d="M173.52 63.69C173.52 63.69 178.21 82.6 201.02 79.97M116.02 18.17C116.02 18.17 137.66 16.17 149.02 33.17M256.14 54.69C280.06 85.93 311.35 89.87 346.78 73.99M387.02 29C387.7 22.72 406.55 -1.13001 432.28 7.99999M488.47 83.76C493.72 83.86 526.27 72.92 511.56 29M257.36 52C257.36 52 267.87 52 272.52 38.12" stroke="#BBC0C4" stroke-miterlimit="10" stroke-dasharray="5 5"/>
<path d="M82.24 65.17C96.57 62.78 124.75 61.99 138.11 77.82C151.47 93.65 197.02 98.75 202.6 80.82" stroke="#BBC0C4" stroke-miterlimit="10" stroke-dasharray="5 5"/>
</g>
<path d="M44.17 70.1V69.06M56.62 70.31V74.04M38.41 68.01L34.45 67.47L37.41 45.87L64.78 49.62L61.82 71.22L41.77 68.47" stroke="#1060E1" stroke-miterlimit="10"/>
<path d="M51.62 64.61L51.42 66.05M54.5 65L54.3 66.44M48.74 64.21L48.54 65.65M45.86 63.82L45.66 65.26M42.98 63.43L42.78 64.87M35.24 61.71L32.93 61.39C32.6654 61.3569 32.4101 61.2713 32.1791 61.1381C31.948 61.0049 31.746 60.8268 31.5848 60.6144C31.4236 60.4019 31.3065 60.1594 31.2405 59.9011C31.1744 59.6427 31.1606 59.3738 31.2 59.11L31.83 54.5C31.8617 54.2326 31.9471 53.9742 32.081 53.7406C32.2149 53.5069 32.3947 53.3027 32.6095 53.1402C32.8243 52.9777 33.0697 52.8603 33.331 52.795C33.5922 52.7296 33.864 52.7177 34.13 52.76L36.43 53.07L35.24 61.71ZM64.9 65.77L62.61 65.5L63.79 56.86L66.11 57.18C66.3736 57.2132 66.628 57.2985 66.8583 57.4311C67.0886 57.5636 67.2902 57.7408 67.4512 57.9521C67.6123 58.1634 67.7296 58.4047 67.7964 58.6619C67.8631 58.9191 67.878 59.187 67.84 59.45L67.2 64.07C67.1635 64.3339 67.0745 64.5879 66.9385 64.8169C66.8024 65.046 66.622 65.2456 66.4077 65.404C66.1934 65.5623 65.9497 65.6763 65.6908 65.7391C65.4319 65.802 65.163 65.8125 64.9 65.77V65.77Z" stroke="#1060E1" stroke-miterlimit="10"/>
<path d="M54.3788 56.4025C54.5939 54.8321 53.4642 53.3804 51.8555 53.16C50.2468 52.9397 48.7683 54.0341 48.5532 55.6045C48.3381 57.1749 49.4678 58.6265 51.0765 58.8469C52.6852 59.0673 54.1637 57.9729 54.3788 56.4025Z" stroke="#1060E1" stroke-miterlimit="10"/>
<path d="M44.696 55.0727C44.9111 53.5023 43.7814 52.0506 42.1727 51.8302C40.564 51.6099 39.0855 52.7043 38.8704 54.2747C38.6553 55.8451 39.785 57.2968 41.3937 57.5171C43.0024 57.7375 44.4809 56.6431 44.696 55.0727Z" stroke="#1060E1" stroke-miterlimit="10"/>
<path d="M40.44 91.46V98.92M57.86 91.46V98.92M61.59 81.51V82.75M51.64 81.51V82.75M39.2 80.88H46.67V85.86H39.2V80.88Z" stroke="#1060E1" stroke-miterlimit="10"/>
<path d="M66.57 86.48V90.84H31.73V73.42H37.01M42.45 64.89L40.47 67.89" stroke="#1060E1" stroke-miterlimit="10"/>
<path d="M47.29 73.42H66.57V82.75M39.33 76.11C36.99 74.56 36.16 71.68 37.48 69.68L39.28 66.95L47.77 72.56L46.02 75.28C44.65 77.29 41.68 77.66 39.33 76.11Z" stroke="#1060E1" stroke-miterlimit="10"/>
<path d="M73.34 81.94L74.62 77.77C74.6135 77.1922 74.4932 76.6213 74.266 76.0899C74.0388 75.5586 73.7092 75.0772 73.296 74.6733C72.8828 74.2693 72.394 73.9508 71.8576 73.7357C71.3213 73.5207 70.7478 73.4134 70.17 73.42H64.7M64.31 90.34L66.99 86.9M67.74 93.03L70.43 89.59M40.32 76.65C39.758 76.8431 39.1729 76.9608 38.58 77H31.52M73.34 82.33C75.56 84.06 76.15 87 74.67 88.89L72.67 91.46L64.67 85.19L66.67 82.62C68.14 80.73 71.13 80.6 73.34 82.33Z" stroke="#1060E1" stroke-miterlimit="10"/>
<path d="M25.84 31.74L33.8 41.74L34.03 31.74H38.58V8.10001H0V31.74H25.84Z" fill="#FFB935"/>
<path d="M13.69 28.63H28.38L36.71 39.16V28.63H42.93V19.3M11.2 4.98999H3.12V29.25M41.69 10.59V4.98999H18.67" stroke="#F48024" stroke-miterlimit="10"/>
<path d="M19.19 19.3C19.1589 18.5417 19.2743 17.7846 19.53 17.07C19.8113 16.435 20.2357 15.8737 20.77 15.43C21.2466 15.0547 21.6674 14.6136 22.02 14.12C22.2161 13.7976 22.3199 13.4274 22.32 13.05C22.32 11.93 21.8 11.36 20.76 11.36C20.5421 11.3499 20.3245 11.3856 20.1212 11.4649C19.918 11.5441 19.7336 11.6651 19.58 11.82C19.425 11.9879 19.3046 12.1848 19.2257 12.3993C19.1467 12.6137 19.1108 12.8417 19.12 13.07H16.22C16.1938 12.5105 16.2904 11.9521 16.5029 11.4338C16.7153 10.9156 17.0386 10.4501 17.45 10.07C18.3802 9.31017 19.5607 8.92502 20.76 8.99001C21.9421 8.90941 23.1127 9.26521 24.05 9.99001C24.4469 10.355 24.7578 10.8036 24.9601 11.3034C25.1624 11.8032 25.2512 12.3417 25.22 12.88C25.2073 13.4465 25.0599 14.0018 24.79 14.5C24.4416 15.129 23.9923 15.6966 23.46 16.18L22.65 16.95C22.1663 17.3987 21.8579 18.0048 21.78 18.66V19.27L19.19 19.3ZM19.02 22.35C19.0177 22.1625 19.0548 21.9766 19.1289 21.8044C19.203 21.6321 19.3124 21.4773 19.45 21.35C19.7496 21.0857 20.1355 20.9398 20.535 20.9398C20.9346 20.9398 21.3204 21.0857 21.62 21.35C21.7577 21.4773 21.8671 21.6321 21.9411 21.8044C22.0152 21.9766 22.0523 22.1625 22.05 22.35C22.0548 22.5369 22.0199 22.7227 21.9475 22.8951C21.8751 23.0675 21.7669 23.2226 21.63 23.35C21.3235 23.6081 20.9357 23.7496 20.535 23.7496C20.1343 23.7496 19.7465 23.6081 19.44 23.35C19.3032 23.2226 19.195 23.0675 19.1226 22.8951C19.0502 22.7227 19.0152 22.5369 19.02 22.35Z" fill="#F8F9F9"/>
<path d="M60.35 107.63V108.88M55.37 107.63V108.88M42.93 107.63V108.88M37.95 107.63V108.88M64.08 109.5H51.64V105.29C51.609 103.808 52.0892 102.361 52.9998 101.192C53.9104 100.023 55.1959 99.2028 56.64 98.87C57.5623 98.6936 58.5123 98.7259 59.4205 98.9645C60.3287 99.2032 61.1719 99.6421 61.8883 100.249C62.6046 100.856 63.176 101.616 63.5605 102.473C63.9449 103.329 64.1327 104.261 64.11 105.2L64.08 109.5ZM46.66 109.5H34.22V105.29C34.1928 103.809 34.6744 102.364 35.5844 101.196C36.4944 100.027 37.7777 99.2062 39.22 98.87C40.1423 98.6936 41.0923 98.7259 42.0005 98.9645C42.9087 99.2032 43.7519 99.6421 44.4683 100.249C45.1846 100.856 45.756 101.616 46.1405 102.473C46.5249 103.329 46.7127 104.261 46.69 105.2L46.66 109.5Z" stroke="#1060E1" stroke-miterlimit="10"/>
</svg>
