<svg width="17" height="17" viewBox="0 0 17 17" fill="none" xmlns="http://www.w3.org/2000/svg">
<path d="M16.66 8.69316C16.66 8.09044 16.6059 7.51089 16.5055 6.95453H8.5V10.2463H13.0745C12.8736 11.305 12.2709 12.2013 11.3668 12.8041V14.9445H14.1255C15.7327 13.4609 16.66 11.2818 16.66 8.69316V8.69316Z" fill="#4285F4"/>
<path d="M8.49992 17C10.7949 17 12.719 16.2427 14.1254 14.9445L11.3667 12.804C10.6095 13.314 9.64356 13.6231 8.49992 13.6231C6.28992 13.6231 4.4122 12.1318 3.73992 10.1227H0.911743V12.3172C2.31038 15.0913 5.1772 17 8.49992 17Z" fill="#34A853"/>
<path d="M3.74 10.115C3.57 9.60497 3.46955 9.06406 3.46955 8.49997C3.46955 7.93588 3.57 7.39497 3.74 6.88497V4.69043H0.911818C0.332273 5.83407 0 7.12452 0 8.49997C0 9.87543 0.332273 11.1659 0.911818 12.3095L3.11409 10.5941L3.74 10.115Z" fill="#FBBC05"/>
<path d="M8.49992 3.38454C9.75174 3.38454 10.8645 3.81727 11.7531 4.65182L14.1872 2.21773C12.7113 0.842272 10.7949 0 8.49992 0C5.1772 0 2.31038 1.90864 0.911743 4.69045L3.73992 6.885C4.4122 4.87591 6.28992 3.38454 8.49992 3.38454Z" fill="#EA4335"/>
</svg>
