<svg width="32" height="37" viewBox="0 0 32 37" fill="none" xmlns="http://www.w3.org/2000/svg">
<path d="M26.88 33.2752V23.3423H30.72V37H0V23.3423H3.84V33.2752H26.88Z" fill="#BCBBBB"/>
<path d="M6.91202 23.4664L24.32 25.9496L24.448 22.9698L7.68002 19.6174L7.04002 23.3423L6.91202 23.4664ZM9.21602 15.0235L24.576 21.9765L25.984 18.9966L10.624 12.0436L9.21602 15.0235ZM13.568 7.69797L26.624 18.2517L28.8 15.7685L15.744 5.21474L13.568 7.69797ZM21.888 0L19.2 1.98655L29.312 15.1477L32 13.161L21.888 0ZM6.40002 30.7919H24.32V27.0671H6.40002V30.7919Z" fill="#F48024"/>
</svg>
