<svg width="150" height="30" viewBox="0 0 150 30" fill="none" xmlns="http://www.w3.org/2000/svg">
<path d="M21.6644 26.98V18.9263H24.7593V30.0001H0V18.9263H3.09491V26.98H21.6644Z" fill="#BCBBBB"/>
<path d="M5.57086 19.0268L19.6011 21.0402L19.7043 18.6242L6.18984 15.906L5.67402 18.9262L5.57086 19.0268ZM7.4278 12.1812L19.8075 17.8188L20.9423 15.4027L8.56261 9.76509L7.4278 12.1812V12.1812ZM10.9354 6.24159L21.4581 14.7987L23.2119 12.7853L12.6892 4.22817L10.9354 6.24159V6.24159ZM17.641 0L15.4746 1.61071L23.6245 12.2819L25.7909 10.6711L17.641 0V0ZM5.1582 24.9664H19.6011V21.9463H5.1582V24.9664Z" fill="#F48024"/>
<path d="M35.0756 18.8254L33.3218 18.6241C31.9807 18.6241 31.4649 18.02 31.4649 17.114C31.4649 16.1073 32.187 15.3019 33.8376 15.3019C34.8693 15.3019 35.9009 15.6039 36.5199 16.1073L37.5515 15.1006C36.5199 14.3959 35.2819 14.0939 33.8376 14.0939C31.568 14.0939 29.9174 15.2012 29.9174 17.114C29.9174 18.8254 30.949 19.7314 33.0123 19.9328L34.8693 20.0334C36.1072 20.1341 36.623 20.6375 36.623 21.6442C36.623 22.8523 35.5914 23.4563 33.9408 23.4563C32.5997 23.4563 31.4649 23.1543 30.6395 22.3489L29.6079 23.3556C30.8459 24.3623 32.187 24.6643 33.9408 24.6643C36.5199 24.6643 38.2737 23.557 38.2737 21.6442C38.0673 19.6308 36.7262 19.0268 34.9724 18.8254H35.0756ZM48.1774 14.1945C46.4236 14.1945 45.392 14.4965 44.4635 15.6039L45.4951 16.6106C46.1141 15.7046 46.7331 15.4026 48.1774 15.4026C50.0343 15.4026 50.8596 16.208 50.8596 17.6174V18.6241H47.6616C45.2888 18.6241 43.9477 19.8321 43.9477 21.6442C43.9477 22.3489 44.2572 23.1543 44.773 23.6576C45.4951 24.463 46.2173 24.6643 47.7647 24.6643C48.3236 24.7106 48.8863 24.6452 49.4185 24.4721C49.9506 24.299 50.441 24.0219 50.8596 23.6576V24.6643H52.4071V17.6174C52.3039 15.3019 50.9628 14.1945 48.1774 14.1945V14.1945ZM50.8596 20.9395C50.8596 21.8455 50.6533 22.3489 50.3438 22.6509C49.6217 23.2549 48.7964 23.3556 47.9711 23.3556C46.2173 23.3556 45.5983 22.7516 45.5983 21.6442C45.5983 20.4361 46.3204 19.8321 47.9711 19.8321H50.9628L50.8596 20.9395V20.9395ZM58.2874 15.5032C59.3191 15.5032 59.938 15.8052 60.7634 16.7113L61.795 15.7046C60.6602 14.5972 59.7317 14.1945 58.2874 14.1945C55.6052 14.1945 53.5419 15.9059 53.5419 19.5301C53.5419 22.9529 55.6052 24.765 58.2874 24.765C59.7317 24.765 60.6602 24.463 61.6918 23.2549L60.6602 22.2482C59.8349 23.2549 59.2159 23.4563 58.2874 23.4563C57.8155 23.4682 57.3471 23.3746 56.9179 23.1827C56.4888 22.9907 56.1103 22.7055 55.8115 22.3489C55.2957 21.6442 55.0893 20.8388 55.0893 19.5301C55.0893 18.2213 55.2957 17.416 55.8115 16.7113C56.4305 15.9059 57.3589 15.5032 58.2874 15.5032V15.5032ZM71.5955 14.2952H69.7386L64.9931 18.8254V9.66431H63.3424V24.5636H64.9931V20.7381L66.85 18.9261L70.4607 24.5636H72.2145L67.8817 17.8187L71.4924 14.2952H71.5955ZM78.817 13.9932C77.2695 13.9932 76.1347 14.5972 75.4126 15.3019C74.381 16.3086 74.1746 17.6173 74.1746 19.5301C74.1746 21.4428 74.4841 22.6509 75.4126 23.5569C76.1347 24.3623 77.2695 24.9663 78.817 24.9663C80.3645 24.9663 81.6024 24.463 82.2214 23.6576C83.253 22.6509 83.4594 21.4428 83.4594 19.5301C83.4594 17.5166 83.1499 16.3086 82.2214 15.3019C81.6024 14.5972 80.4676 13.9932 78.817 13.9932ZM80.1581 22.0468C79.8486 22.3489 79.436 22.4496 78.817 22.4496C78.198 22.4496 77.7854 22.3489 77.579 22.0468C76.9601 21.4428 76.9601 20.4361 76.9601 19.4294C76.9601 18.2214 76.9601 17.416 77.579 16.812C77.7854 16.51 78.198 16.3086 78.817 16.3086C79.436 16.3086 79.8486 16.51 80.1581 16.812C80.6739 17.416 80.6739 18.2214 80.6739 19.4294C80.7771 20.5368 80.6739 21.4428 80.1581 22.0468ZM90.784 14.0939L88.6176 20.7381L86.348 14.0939H83.4594L87.5859 24.765H89.6492L93.7757 14.0939H90.784ZM98.315 13.9932C95.4264 13.9932 93.5694 16.0066 93.5694 19.5301C93.5694 23.8589 96.0453 24.9663 98.6244 24.9663C100.688 24.9663 101.719 24.463 102.751 23.3556L101.1 21.9462C100.791 22.2845 100.409 22.5506 99.98 22.7249C99.5514 22.8992 99.0881 22.9771 98.6244 22.9529C97.077 22.9529 96.2517 21.9462 96.2517 20.4361H103.06V19.3288C103.06 16.3086 101.41 14.0939 98.315 14.0939V13.9932ZM96.2517 18.4227C96.2517 17.9194 96.2517 17.6174 96.5612 17.3154C96.8706 16.6107 97.3865 16.1073 98.4181 16.1073C98.8138 16.1137 99.1992 16.231 99.5284 16.4452C99.8576 16.6594 100.117 16.9614 100.275 17.3154C100.481 17.6174 100.481 17.9194 100.585 18.4227H96.2517V18.4227ZM107.084 15.2012V14.0939H104.505V24.765H107.187V18.3221C107.187 17.0133 108.116 16.4093 109.044 16.4093C109.663 16.4093 110.076 16.6106 110.488 17.114L112.552 15.1006C111.726 14.2952 111.107 14.0939 109.972 14.0939C108.734 13.9932 107.703 14.4965 107.084 15.1006V15.2012ZM112.655 12.8858V24.765H115.44V16.3086H117.503V14.2952H115.44V13.0872C115.44 12.5838 115.75 12.0804 116.472 12.0804H117.503V9.96634H115.956C113.686 9.96634 112.655 11.4764 112.655 12.9864V12.8858ZM129.367 13.9932C127.82 13.9932 126.685 14.5972 126.066 15.3019C125.034 16.3086 124.725 17.6173 124.725 19.5301C124.725 21.4428 125.034 22.6509 126.066 23.5569C126.685 24.3623 127.82 24.9663 129.367 24.9663C131.018 24.9663 132.153 24.463 132.772 23.6576C133.803 22.6509 134.01 21.4428 134.01 19.5301C134.01 17.5166 133.7 16.3086 132.772 15.3019C132.153 14.5972 131.018 13.9932 129.367 13.9932V13.9932ZM130.708 22.0468C130.399 22.3489 129.986 22.4496 129.367 22.4496C128.748 22.4496 128.336 22.3489 128.129 22.0468C127.51 21.4428 127.51 20.4361 127.51 19.4294C127.51 18.2214 127.613 17.416 128.129 16.812C128.439 16.51 128.748 16.3086 129.367 16.3086C129.986 16.3086 130.399 16.51 130.708 16.812C131.224 17.416 131.224 18.2214 131.224 19.4294C131.224 20.5368 131.224 21.4428 130.708 22.0468ZM147.008 14.0939L145.254 20.7381L142.985 14.0939H140.922L138.652 20.7381L136.898 14.0939H134.113L137.517 24.765H139.787L142.056 18.02L144.326 24.765H146.596L150 14.0939H147.111H147.008ZM121.63 21.5435V9.86566H118.845V21.7448C118.845 23.2549 119.876 24.765 122.043 24.765H123.693V22.5502H122.662C121.939 22.5502 121.63 22.2482 121.63 21.5435V21.5435ZM42.297 15.9059L43.7413 14.5972H40.6464V11.1744H39.2021V21.9462C39.2021 23.4563 40.1306 24.6643 41.8844 24.6643H42.916V23.4563H42.1939C41.1622 23.4563 40.7496 22.8522 40.7496 21.9462V15.9059H42.297Z" fill="#222426"/>
</svg>
